<svg xmlns="http://www.w3.org/2000/svg" viewBox="0 0 1440 900" width="1440" height="900" style="font-family:Georgia, serif">
  <defs>
    <linearGradient id="imggrad" x1="0" y1="0" x2="1" y2="1"><stop offset="0%" stop-color="#1E3A5F"/><stop offset="100%" stop-color="#2C5282"/></linearGradient>
    <linearGradient id="herograd" x1="0" y1="0" x2="0" y2="1"><stop offset="0%" stop-color="#1E3A5F"/><stop offset="100%" stop-color="#0A1628"/></linearGradient>
  </defs>
  <rect width="1440" height="900" fill="#0A1628"/>
  <rect x="0" y="0" width="1440" height="60" fill="#050D1A"/>
  <text x="40" y="38" fill="#C9A84C" font-size="18" font-weight="bold" font-family="Georgia,serif">LUXE</text>
  <text x="88" y="38" fill="#FFFFFF" font-size="18" font-weight="bold" font-family="Georgia,serif">ESTATE</text>
  <text x="240" y="36" fill="#9CA3AF" font-size="13">Properties</text>
  <text x="344" y="36" fill="#9CA3AF" font-size="13">Neighborhoods</text>
  <text x="472" y="36" fill="#9CA3AF" font-size="13">Agents</text>
  <text x="544" y="36" fill="#9CA3AF" font-size="13">About</text>
  <text x="608" y="36" fill="#9CA3AF" font-size="13">Blog</text>
  <rect x="1288" y="14" width="120" height="32" fill="#C9A84C"/>
  <text x="1326" y="34" fill="#0A1628" font-size="13" font-weight="bold">Contact</text>
  <rect x="0" y="60" width="1440" height="4" fill="#C9A84C"/>
  <text x="60" y="104" fill="#C9A84C" font-size="11" font-weight="bold">Miami · Fort Lauderdale · Palm Beach</text>
  <text x="60" y="144" fill="#FFFFFF" font-size="36" font-weight="bold" font-family="Georgia,serif">Where Exceptional Properties</text>
  <text x="60" y="188" fill="#FFFFFF" font-size="36" font-weight="bold" font-family="Georgia,serif">Meet Extraordinary Lives</text>
  <text x="60" y="238" fill="#9CA3AF" font-size="14">Representing the finest waterfront estates and penthouses across South Florida.</text>
  <rect x="60" y="300" width="190" height="42" fill="#C9A84C" rx="3"/>
  <text x="155" y="326" fill="#0A1628" font-size="12" font-weight="bold" text-anchor="middle">View Properties</text>
  <rect x="700" y="64" width="720" height="360" fill="url(#imggrad)"/>
  <text x="1060" y="249" fill="rgba(255,255,255,0.4)" font-size="12" text-anchor="middle">Property Hero</text>
  <rect x="710" y="348" width="340" height="80" fill="#112240"/>
  <text x="726" y="372" fill="#C9A84C" font-size="10" font-weight="bold">Star Island · Miami Beach</text>
  <text x="726" y="392" fill="#FFFFFF" font-size="13" font-weight="bold" font-family="Georgia,serif">1 Star Island Drive</text>
  <text x="726" y="414" fill="#FFFFFF" font-size="15" font-weight="bold">$28,500,000</text>
  <rect x="0" y="498" width="1440" height="76" fill="#050D1A"/>
  <text x="80" y="536" fill="#C9A84C" font-size="26" font-weight="bold" font-family="Georgia,serif">$4.8B+</text>
  <text x="80" y="556" fill="#9CA3AF" font-size="11">Total Sales</text>
  <text x="420" y="536" fill="#C9A84C" font-size="26" font-weight="bold" font-family="Georgia,serif">1,200+</text>
  <text x="420" y="556" fill="#9CA3AF" font-size="11">Homes Sold</text>
  <text x="760" y="536" fill="#C9A84C" font-size="26" font-weight="bold" font-family="Georgia,serif">21</text>
  <text x="760" y="556" fill="#9CA3AF" font-size="11">Avg Days</text>
  <text x="1100" y="536" fill="#C9A84C" font-size="26" font-weight="bold" font-family="Georgia,serif">98%</text>
  <text x="1100" y="556" fill="#9CA3AF" font-size="11">Satisfaction</text>
  <text x="60" y="598" fill="#FFFFFF" font-size="22" font-weight="bold" font-family="Georgia,serif">Featured Properties</text>
  <text x="1300" y="602" fill="#C9A84C" font-size="12" font-weight="bold">View All →</text>
  <rect x="40" y="628" width="428" height="210" fill="#112240"/>
  <rect x="40" y="628" width="428" height="105" fill="url(#imggrad)"/>
  <text x="52" y="747" fill="#C9A84C" font-size="10" font-weight="bold">Waterfront · Star Island</text>
  <text x="52" y="765" fill="#FFFFFF" font-size="13" font-weight="bold" font-family="Georgia,serif">1 Star Island Dr</text>
  <text x="52" y="785" fill="#FFFFFF" font-size="15" font-weight="bold">$28.5M</text>
  <rect x="490" y="628" width="428" height="210" fill="#112240"/>
  <rect x="490" y="628" width="428" height="105" fill="url(#imggrad)"/>
  <text x="502" y="747" fill="#C9A84C" font-size="10" font-weight="bold">Villa · Venetian Islands</text>
  <text x="502" y="765" fill="#FFFFFF" font-size="13" font-weight="bold" font-family="Georgia,serif">404 W Rivo Alto Dr</text>
  <text x="502" y="785" fill="#FFFFFF" font-size="15" font-weight="bold">$9.75M</text>
  <rect x="940" y="628" width="428" height="210" fill="#112240"/>
  <rect x="940" y="628" width="428" height="105" fill="url(#imggrad)"/>
  <text x="952" y="747" fill="#C9A84C" font-size="10" font-weight="bold">Estate · Coconut Grove</text>
  <text x="952" y="765" fill="#FFFFFF" font-size="13" font-weight="bold" font-family="Georgia,serif">3290 Royal Road</text>
  <text x="952" y="785" fill="#FFFFFF" font-size="15" font-weight="bold">$14.2M</text>
  <rect x="0" y="868" width="1440" height="32" fill="#050D1A"/>
  <text x="16" y="888" fill="#C9A84C" font-size="11" font-weight="bold">HOME PAGE</text>
  <text x="1279" y="888" fill="#9CA3AF" font-size="10">page-home-v1/v2/v3.html</text>
</svg>